HIERARCHY
ROOT Hips
{
 OFFSET 0.000000 0.000000 0.000000
 CHANNELS 6 Xposition Yposition Zposition Yrotation Xrotation Zrotation
 JOINT Chest
 {
  OFFSET 0.000000 9.581000 -0.001100
  CHANNELS 3 Yrotation Xrotation Zrotation
  JOINT Chest2
  {
   OFFSET 0.000000 9.561100 0.002200
   CHANNELS 3 Yrotation Xrotation Zrotation
   JOINT Chest3
   {
    OFFSET 0.000000 9.521100 0.000000
    CHANNELS 3 Yrotation Xrotation Zrotation
    JOINT Chest4
    {
     OFFSET 0.000000 9.511400 0.000000
     CHANNELS 3 Yrotation Xrotation Zrotation
     JOINT Neck
     {
      OFFSET 0.000000 14.375100 0.000000
      CHANNELS 3 Yrotation Xrotation Zrotation
      JOINT Head
      {
       OFFSET 0.000000 8.901200 0.004600
       CHANNELS 3 Yrotation Xrotation Zrotation
       End Site
       {
        OFFSET 0.000000 16.962200 0.002400
       }
      }
     }
     JOINT RightCollar
     {
      OFFSET -2.920100 9.518800 0.000000
      CHANNELS 3 Yrotation Xrotation Zrotation
      JOINT RightShoulder
      {
       OFFSET -13.664500 0.000000 0.000000
       CHANNELS 3 Yrotation Xrotation Zrotation
       JOINT RightElbow
       {
        OFFSET 0.000000 -29.999200 0.000000
        CHANNELS 3 Yrotation Xrotation Zrotation
        JOINT RightWrist
        {
         OFFSET 0.000000 -24.253600 0.000000
         CHANNELS 3 Yrotation Xrotation Zrotation
         End Site
         {
          OFFSET 0.000000 -17.918900 0.000000
         }
        }
       }
      }
     }
     JOINT LeftCollar
     {
      OFFSET 2.920100 9.518800 0.000000
      CHANNELS 3 Yrotation Xrotation Zrotation
      JOINT LeftShoulder
      {
       OFFSET 13.664500 0.000000 0.000000
       CHANNELS 3 Yrotation Xrotation Zrotation
       JOINT LeftElbow
       {
        OFFSET 0.000000 -29.999200 0.000000
        CHANNELS 3 Yrotation Xrotation Zrotation
        JOINT LeftWrist
        {
         OFFSET 0.000000 -24.253600 0.000000
         CHANNELS 3 Yrotation Xrotation Zrotation
         End Site
         {
          OFFSET 0.000000 -17.918900 0.000000
         }
        }
       }
      }
     }
    }
   }
  }
 }
 JOINT RightHip
 {
  OFFSET -7.797300 0.005300 0.000500
  CHANNELS 3 Yrotation Xrotation Zrotation
  JOINT RightKnee
  {
   OFFSET 0.000000 -40.663400 -0.000500
   CHANNELS 3 Yrotation Xrotation Zrotation
   JOINT RightAnkle
   {
    OFFSET 0.000000 -39.523700 -0.000900
    CHANNELS 3 Yrotation Xrotation Zrotation
    JOINT RightToe
    {
     OFFSET 0.000000 -6.418000 14.485300
     CHANNELS 3 Yrotation Xrotation Zrotation
     End Site
     {
      OFFSET 0.000000 -1.465200 6.326400
     }
    }
   }
  }
 }
 JOINT LeftHip
 {
  OFFSET 7.797300 0.005300 0.000500
  CHANNELS 3 Yrotation Xrotation Zrotation
  JOINT LeftKnee
  {
   OFFSET 0.000000 -40.663400 -0.000500
   CHANNELS 3 Yrotation Xrotation Zrotation
   JOINT LeftAnkle
   {
    OFFSET 0.000000 -39.523700 -0.000900
    CHANNELS 3 Yrotation Xrotation Zrotation
    JOINT LeftToe
    {
     OFFSET 0.000000 -6.418000 14.485300
     CHANNELS 3 Yrotation Xrotation Zrotation
     End Site
     {
      OFFSET 0.000000 -1.465200 6.326400
     }
    }
   }
  }
 }
}
MOTION
Frames: 8
Frame Time: 0.008333
-15.251282 126.906401 20.728352 -170.710124 -50.978144 -4.493154 -2.990855 25.829406 0.285355 -0.481555 4.253274 0.134710 -0.774487 6.776672 0.204927 -2.461280 21.260124 0.354775 5.483535 17.456157 9.119614 3.866334 -6.962080 8.782158 8.472277 1.001248 3.778720 15.730444 -35.382931 -3.599766 -83.705754 -39.551404 144.753447 -9.099819 11.519237 15.542036 -11.420864 -1.718306 -1.601981 -23.174813 -31.783212 6.960478 15.932351 -20.499697 -67.830333 -2.324455 5.449389 -25.208723 -4.902462 -21.174255 -1.339527 -3.936428 77.449942 -2.149214 10.573538 -10.593578 1.442594 0.000220 -0.002333 0.000097 7.680368 5.707193 4.331512 129.681825 65.461535 150.774988 3.987301 14.702421 6.447259 -0.001177 0.001955 -0.000522
-15.249441 126.906345 20.729496 -170.715926 -50.986024 -4.492971 -2.976607 25.834468 0.288251 -0.471723 4.254666 0.130198 -0.769654 6.777942 0.203462 -2.442125 21.257564 0.355788 5.471824 17.435433 9.080465 3.865604 -6.993623 8.740742 8.471420 0.975374 3.754332 15.672082 -35.374847 -3.540852 -83.712068 -39.556672 144.755345 -9.103503 11.512779 15.536267 -11.443683 -1.727117 -1.583546 -23.153529 -31.804463 6.945938 15.910471 -20.481064 -67.826393 -2.326164 5.450325 -25.207337 -4.898590 -21.166005 -1.335535 -3.950755 77.453087 -2.161277 10.573769 -10.620516 1.449028 -0.000273 -0.002468 -0.000121 7.686161 5.713089 4.338617 129.686946 65.461831 150.779131 3.993856 14.704262 6.443270 -0.002566 0.003062 -0.001137
-15.248627 126.905691 20.731087 -170.718328 -50.988999 -4.488488 -2.960543 25.837446 0.284266 -0.469226 4.252864 0.128962 -0.765281 6.779743 0.201542 -2.428052 21.261593 0.351310 5.465931 17.409425 9.043073 3.867026 -7.024061 8.698465 8.452435 0.960872 3.769612 15.669147 -35.371936 -3.531982 -83.696615 -39.578488 144.765400 -9.106809 11.486038 15.504022 -11.462088 -1.741662 -1.559804 -23.142706 -31.804933 6.934631 15.898185 -20.475811 -67.823810 -2.335904 5.433779 -25.214220 -4.894997 -21.166955 -1.337486 -3.974305 77.461657 -2.183358 10.571132 -10.638237 1.451737 -0.001379 -0.001257 -0.000611 7.688822 5.713473 4.336235 129.690863 65.459786 150.783292 4.001886 14.703958 6.447251 -0.001756 0.003382 -0.000778
-15.247769 126.905792 20.732023 -170.720046 -50.997033 -4.485070 -2.943806 25.841599 0.279972 -0.468658 4.254303 0.129337 -0.761158 6.781311 0.199395 -2.410202 21.266103 0.346750 5.457006 17.384364 9.006501 3.869807 -7.052584 8.655991 8.430654 0.946870 3.785932 15.708190 -35.361981 -3.563462 -83.740525 -39.569505 144.775310 -9.119862 11.481897 15.496420 -11.484795 -1.754949 -1.536422 -23.127478 -31.807318 6.923011 15.888832 -20.473857 -67.820256 -2.331422 5.438707 -25.219722 -4.891629 -21.161242 -1.339297 -4.017831 77.469028 -2.222227 10.567716 -10.656805 1.451156 -0.002483 -0.000623 -0.001100 7.691213 5.717262 4.335237 129.691694 65.457666 150.785456 4.002135 14.705865 6.453002 -0.001558 0.000999 -0.000690
-15.247458 126.905868 20.732950 -170.722042 -51.004932 -4.477836 -2.931704 25.845606 0.272827 -0.465063 4.256167 0.127663 -0.757074 6.783013 0.197218 -2.382293 21.270005 0.325446 5.439661 17.366482 9.025121 3.884827 -7.087254 8.578054 8.413794 0.917883 3.797452 15.683380 -35.352597 -3.537306 -83.755230 -39.565720 144.779702 -9.150224 11.486877 15.476288 -11.519692 -1.763547 -1.493819 -23.113357 -31.812065 6.914314 15.881329 -20.474142 -67.820022 -2.335701 5.420791 -25.229962 -4.889302 -21.154277 -1.353948 -4.049042 77.474692 -2.251500 10.613774 -10.682005 1.450384 0.000107 -0.000501 0.000047 7.692781 5.724998 4.330698 129.688526 65.457874 150.784247 4.000135 14.705056 6.460690 -0.000589 -0.000308 -0.000261
-15.247301 126.906557 20.733382 -170.727882 -51.017357 -4.467013 -2.917591 25.854834 0.264316 -0.459038 4.258774 0.125730 -0.753157 6.785284 0.195083 -2.363074 21.274187 0.315696 5.435609 17.334556 8.979243 3.883896 -7.115426 8.554178 8.390187 0.901130 3.821342 15.683280 -35.348971 -3.536625 -83.755360 -39.569783 144.786759 -9.166052 11.477394 15.452547 -11.547484 -1.776766 -1.463608 -23.104316 -31.817379 6.907983 15.873272 -20.470299 -67.824017 -2.328865 5.421985 -25.228252 -4.886892 -21.143518 -1.365457 -4.028307 77.479041 -2.235876 10.639705 -10.700525 1.452114 0.000961 -0.000382 0.000426 7.698184 5.735166 4.326987 129.690197 65.458360 150.790136 4.004914 14.711567 6.446914 0.001021 -0.000124 0.000453
-15.246327 126.905975 20.734760 -170.725245 -51.019214 -4.466653 -2.901833 25.854473 0.263024 -0.456541 4.261901 0.123435 -0.748947 6.787576 0.193222 -2.349870 21.278004 0.311308 5.436750 17.303031 8.925383 3.866438 -7.123780 8.589227 8.378225 0.880179 3.826459 15.654343 -35.346319 -3.509022 -83.740522 -39.576668 144.787196 -9.170086 11.463459 15.436388 -11.572818 -1.784389 -1.435658 -23.097586 -31.829565 6.901672 15.872496 -20.468848 -67.825446 -2.319194 5.435018 -25.226189 -4.893411 -21.143159 -1.364340 -4.026111 77.486632 -2.233790 10.622708 -10.720362 1.448204 -0.000077 -0.000137 -0.000034 7.696905 5.728820 4.326499 129.703795 65.455427 150.808492 4.011857 14.725861 6.415180 0.000950 0.001363 0.000421
-15.245559 126.905694 20.735886 -170.726112 -51.023542 -4.462699 -2.885029 25.859605 0.258560 -0.452060 4.261215 0.123018 -0.756106 6.788772 0.197474 -2.326038 21.281927 0.300398 5.434340 17.275585 8.887620 3.851391 -7.134183 8.607289 8.358385 0.859585 3.827265 15.645807 -35.339529 -3.489898 -83.743179 -39.579664 144.795191 -9.175256 11.448557 15.414796 -11.600445 -1.790509 -1.407789 -23.094324 -31.835864 6.896119 15.876251 -20.473610 -67.824612 -2.313350 5.437622 -25.232146 -4.896022 -21.140244 -1.367957 -4.044679 77.492522 -2.255127 10.640999 -10.740486 1.446131 0.001146 0.000180 0.000508 7.697939 5.730847 4.324433 129.705532 65.453759 150.812804 4.013930 14.730191 6.407532 0.000113 0.002923 0.000050
